<?xml version="1.0" encoding="utf-8"?>
<!-- Generator: Adobe Illustrator 24.1.2, SVG Export Plug-In . SVG Version: 6.00 Build 0)  -->
<svg version="1.1" id="Слой_1" xmlns="http://www.w3.org/2000/svg" xmlns:xlink="http://www.w3.org/1999/xlink" x="0px" y="0px"
	 viewBox="0 0 595.3 841.9" style="enable-background:new 0 0 595.3 841.9;" xml:space="preserve">
<style type="text/css">
	.st0{fill:none;stroke:#000000;stroke-miterlimit:10;}
</style>
<line class="st0" x1="431.1" y1="-88.3" x2="431.1" y2="-88.3"/>
<path class="st0" d="M417.8,200c-21.8-12.5-36.6-35.5-36.6-62.5"/>
<path class="st0" d="M381.3,137.5c0-27.6,15.5-51.3,38.3-63.5"/>
<path class="st0" d="M425.1,187.2c-6.2-3.5-12-8-16.8-13.4c-11-12.1-17.2-28.3-17.2-44.6"/>
<path class="st0" d="M423.7,71.4"/>
<path class="st0" d="M391.1,129.1c0-21.7,10.9-42.9,28.7-55.3"/>
<path class="st0" d="M238.6,375.3"/>
<path class="st0" d="M528.9-131"/>
<path class="st0" d="M238.6,358.9"/>
<path class="st0" d="M540.4-167.5"/>
<path class="st0" d="M238.1,393.2"/>
<path class="st0" d="M526.7-110.3"/>
<line class="st0" x1="410.5" y1="84.8" x2="410.5" y2="84.8"/>
<g>
	<circle class="st0" cx="178.8" cy="588.8" r="137.5"/>
	<circle class="st0" cx="178.8" cy="588.8" r="141.7"/>
</g>
<ellipse transform="matrix(0.1602 -0.9871 0.9871 0.1602 -272.9067 1096.4365)" class="st0" cx="507.9" cy="708.6" rx="42.5" ry="42.5"/>
<path class="st0" d="M420.5,73.2c11.3-10.2,26.3-16.5,42.8-16.5c35.2,0,64.5,28.6,63.8,63.8c-0.4,17.1-7.2,32.7-17.9,44.1
	c-11.7,12.5-28,20.1-45.9,19.7c-35.2-0.8-63.8-28.6-63.8-63.8C399.6,101.8,407.7,84.9,420.5,73.2"/>
<line class="st0" x1="178.8" y1="841.9" x2="178.8" y2="108.5"/>
<line class="st0" x1="203.3" y1="841.9" x2="156.7" y2="108.5"/>
<line class="st0" x1="289.8" y1="841.9" x2="51" y2="0"/>
<line class="st0" x1="233.8" y1="842.6" x2="124.8" y2="69.7"/>
<line class="st0" x1="512.4" y1="35" x2="178.8" y2="616.7"/>
<path class="st0" d="M278.4,604"/>
<path class="st0" d="M568.6,97.7"/>
<line class="st0" x1="523.1" y1="0" x2="178.8" y2="600.3"/>
<line class="st0" x1="161.4" y1="367.3" x2="201.6" y2="560.6"/>
<line class="st0" x1="167" y1="337.7" x2="192" y2="577.4"/>
<line class="st0" x1="174.7" y1="309.2" x2="183" y2="593"/>
<polyline class="st0" points="546.9,645.2 508.8,708.6 481.1,754.7 "/>
<line class="st0" x1="542.8" y1="647.3" x2="484.2" y2="744.7"/>
<line class="st0" x1="526.3" y1="670" x2="473.4" y2="758.2"/>
<line class="st0" x1="533" y1="654.2" x2="475.1" y2="750.6"/>
<line class="st0" x1="479.3" y1="663.2" x2="566.4" y2="705.9"/>
<line class="st0" x1="491" y1="672.2" x2="544.1" y2="698.2"/>
<line class="st0" x1="476.5" y1="659.2" x2="547.9" y2="694.2"/>
<line class="st0" x1="502.1" y1="69.7" x2="178.8" y2="633.8"/>
<path class="st0" d="M508.3,42.1c21.8,12.5,35.7,35,35.7,62"/>
<path class="st0" d="M543.9,104.1c0,27.6-11.9,48.4-34.7,60.6"/>
<path class="st0" d="M502,53.2c6.2,3.5,11.6,7.8,16.4,13.2c11,12.1,17.2,28.3,17.2,44.6"/>
<path class="st0" d="M535.6,111c0,21.7-8.6,41.2-26.4,53.6"/>
<path class="st0" d="M630.5,305.1"/>
<path class="st0" d="M928.4,429"/>
<path class="st0" d="M508.7,708.7c-107-10.9-176.1-70-198.1-159.1"/>
<path class="st0" d="M758.7,701.7"/>
<path class="st0" d="M289.8,841.9c-27-40.2-44.2-88.4-44.2-140.2c0-62.6,27.1-107.8,65.1-152.1"/>
</svg>
