<?xml version="1.0" encoding="utf-8"?>
<!-- Generator: Adobe Illustrator 24.1.2, SVG Export Plug-In . SVG Version: 6.00 Build 0)  -->
<svg version="1.1" id="Слой_1" xmlns="http://www.w3.org/2000/svg" xmlns:xlink="http://www.w3.org/1999/xlink" x="0px" y="0px"
	 viewBox="0 0 595.3 841.9" style="enable-background:new 0 0 595.3 841.9;" xml:space="preserve">
<style type="text/css">
	.st0{fill:#FFFFFF;stroke:#000000;stroke-miterlimit:10;}
	.st1{fill:none;stroke:#000000;stroke-miterlimit:10;}
</style>
<circle class="st0" cx="371.3" cy="224.6" r="175"/>
<circle class="st0" cx="191.8" cy="677.4" r="79.4"/>
<line class="st1" x1="117.8" y1="706.1" x2="595.3" y2="521.3"/>
<line class="st1" x1="120.5" y1="712.2" x2="595.3" y2="506.5"/>
<line class="st1" x1="124.9" y1="720" x2="595.3" y2="482.2"/>
<line class="st1" x1="136" y1="733.9" x2="595.3" y2="432.8"/>
<line class="st1" x1="158.4" y1="749.5" x2="595.3" y2="340"/>
<line class="st1" x1="141.4" y1="616" x2="592.3" y2="736.2"/>
<circle class="st1" cx="465.4" cy="700.2" r="37.5"/>
<path class="st1" d="M464.9,702.3c-4.7,16.4-20.2,26.2-38,25.3c-20.7-1.1-36.6-18.7-35.5-39.4c0.1-2.7-0.1-2.8,0.6-5.4"/>
<path class="st1" d="M464.9,702.3c4.6-16.5,21.6-30,39.5-29c20.7,1.1,36.6,18.7,35.5,39.4c-0.2,2.9-0.8,6.5-1.6,9.2"/>
<line class="st1" x1="238.1" y1="269.7" x2="113.2" y2="359.5"/>
<line class="st1" x1="241.8" y1="280" x2="123.5" y2="365"/>
<line class="st1" x1="241.1" y1="277.8" x2="121.5" y2="364"/>
<line class="st1" x1="240.3" y1="275.9" x2="119" y2="363.1"/>
<line class="st1" x1="240" y1="273.3" x2="116.3" y2="361.9"/>
<line class="st1" x1="239.1" y1="271.3" x2="115" y2="360.5"/>
<line class="st1" x1="242.1" y1="282" x2="123.9" y2="366.9"/>
<path class="st1" d="M245.3,346.4c3.7,17.7,5.7,36.1,5.7,54.9c-0.2,88.1-45.3,165.5-109.3,214.5"/>
<path class="st1" d="M541,181.5c-30.3,38-77,62.4-129.3,62.4c-83.8,0-153.1-62.4-163.8-143.4"/>
<path class="st1" d="M395.7,243.1c-7.4-18.7-11.5-39.1-11.5-60.5c0-47.9,20.5-90.8,52.9-120.2"/>
<path class="st1" d="M385.3,163.1c3.4-0.4,6.9-0.7,10.5-0.7c16.6,0,32,5,44.8,13.6c18.5,12.4,31.6,32.1,35,55.1"/>
<path class="st1" d="M395.7,243.1c18.9,31.3,29.4,68,29.4,107.3c0,114.9-93.1,208-208,208c-6.2,0-12.3-0.3-18.4-0.8"/>
<line class="st1" x1="420.8" y1="392.5" x2="209.3" y2="158.3"/>
<line class="st1" x1="209.3" y1="158.3" x2="305.5" y2="62.4"/>
<line class="st1" x1="305.5" y1="62.4" x2="509.6" y2="117.3"/>
<line class="st1" x1="509.6" y1="117.3" x2="500" y2="218.3"/>
<line class="st1" x1="500" y1="218.3" x2="384.2" y2="174.2"/>
<line class="st1" x1="384.2" y1="174.2" x2="397.6" y2="162.5"/>
<line class="st1" x1="397.6" y1="162.5" x2="384.3" y2="188.2"/>
<line class="st1" x1="384.3" y1="188.2" x2="416" y2="165"/>
<line class="st1" x1="416" y1="165" x2="386.7" y2="211.7"/>
<line class="st1" x1="386.7" y1="211.7" x2="440.5" y2="176"/>
<line class="st1" x1="440.5" y1="176" x2="395.8" y2="243.4"/>
</svg>
